<svg xmlns="http://www.w3.org/2000/svg" width="800" height="600" viewBox="0 0 800 600">
  <rect width="800" height="600" fill="#1a1a2e"/>
  <rect x="60" y="80" width="160" height="100" rx="12" fill="#16213e"/>
  <text x="140" y="130" font-family="Arial" font-size="24" fill="#ff6b6b" text-anchor="middle">Brand</text>
  <text x="140" y="155" font-family="Arial" font-size="14" fill="#a0a0b0" text-anchor="middle">01</text>
  <rect x="240" y="80" width="160" height="100" rx="12" fill="#16213e"/>
  <text x="320" y="130" font-family="Arial" font-size="24" fill="#ff6b6b" text-anchor="middle">Brand</text>
  <text x="320" y="155" font-family="Arial" font-size="14" fill="#a0a0b0" text-anchor="middle">02</text>
  <rect x="420" y="80" width="160" height="100" rx="12" fill="#16213e"/>
  <text x="500" y="130" font-family="Arial" font-size="24" fill="#ff6b6b" text-anchor="middle">Brand</text>
  <text x="500" y="155" font-family="Arial" font-size="14" fill="#a0a0b0" text-anchor="middle">03</text>
  <rect x="600" y="80" width="160" height="100" rx="12" fill="#16213e"/>
  <text x="680" y="130" font-family="Arial" font-size="24" fill="#ff6b6b" text-anchor="middle">Brand</text>
  <text x="680" y="155" font-family="Arial" font-size="14" fill="#a0a0b0" text-anchor="middle">04</text>
  <rect x="60" y="220" width="160" height="100" rx="12" fill="#16213e"/>
  <text x="140" y="270" font-family="Arial" font-size="24" fill="#ff6b6b" text-anchor="middle">Brand</text>
  <text x="140" y="295" font-family="Arial" font-size="14" fill="#a0a0b0" text-anchor="middle">05</text>
  <rect x="240" y="220" width="160" height="100" rx="12" fill="#16213e"/>
  <text x="320" y="270" font-family="Arial" font-size="24" fill="#ff6b6b" text-anchor="middle">Brand</text>
  <text x="320" y="295" font-family="Arial" font-size="14" fill="#a0a0b0" text-anchor="middle">06</text>
  <text x="400" y="440" font-family="Arial" font-size="32" font-weight="bold" fill="#ffffff" text-anchor="middle">Our Partner Ecosystem</text>
  <text x="400" y="480" font-family="Arial" font-size="16" fill="#a0a0b0" text-anchor="middle">Trusted by leading brands worldwide</text>
</svg>